<svg width="21" height="13" viewBox="0 0 21 13" fill="none" xmlns="http://www.w3.org/2000/svg">
<path d="M20.8061 11.1152C20.8061 11.0322 20.7231 11.0322 20.7231 10.9492C20.391 10.285 19.6438 9.45478 18.6475 8.54153C18.1494 8.12641 17.9003 7.79432 17.7343 7.62827C17.4852 7.29618 17.4852 7.04712 17.5682 6.71503C17.6512 6.46596 17.9833 6.05083 18.5645 5.30363C18.8966 4.88851 19.0626 4.63945 19.3117 4.39038C20.557 2.72992 21.1382 1.65062 20.9721 1.15248L20.8891 1.06946C20.8061 0.986441 20.7231 0.903421 20.557 0.903421C20.391 0.820398 20.1419 0.820398 19.8929 0.903421H16.738C16.655 0.903421 16.655 0.903421 16.4889 0.903421C16.4059 0.903421 16.3229 0.903421 16.3229 0.903421H16.2399H16.1568L16.0738 0.986436C15.9908 1.06946 15.9908 1.06946 15.9908 1.15248C15.6587 2.06573 15.2436 2.81294 14.8285 3.64317C14.5794 4.05828 14.3303 4.4734 14.0813 4.8055C13.8322 5.13759 13.6661 5.38665 13.5001 5.5527C13.334 5.71874 13.168 5.80177 13.085 5.96781C13.0019 6.05083 12.8359 6.13386 12.8359 6.05084C12.7529 6.05084 12.6699 6.05083 12.6699 5.96781C12.5868 5.88479 12.5038 5.80176 12.4208 5.71874C12.3378 5.63572 12.3378 5.46967 12.2547 5.30363C12.2547 5.13758 12.2547 4.97153 12.2547 4.88851C12.2547 4.80549 12.2547 4.55643 12.2547 4.39038C12.2547 4.14131 12.2547 3.97526 12.2547 3.89224C12.2547 3.64317 12.2547 3.31109 12.2547 2.97899C12.2547 2.6469 12.2547 2.39783 12.2547 2.23178C12.2547 2.06573 12.2547 1.81667 12.2547 1.65062C12.2547 1.40155 12.2547 1.2355 12.2547 1.15248C12.2547 1.06946 12.1717 0.903416 12.1717 0.820393C12.0887 0.73737 12.0057 0.654344 11.9227 0.571322C11.8396 0.488299 11.6736 0.488301 11.5906 0.405278C11.1755 0.322255 10.6773 0.239235 10.0962 0.239235C8.7678 0.239235 7.85454 0.32226 7.52245 0.488306C7.3564 0.571329 7.19036 0.654347 7.10733 0.820393C6.94129 0.986439 6.94128 1.06946 7.0243 1.06946C7.43942 1.15249 7.77152 1.31853 7.93756 1.56759L8.02059 1.73365C8.10361 1.81667 8.1036 1.98271 8.18662 2.23178C8.26964 2.48085 8.26965 2.72992 8.26965 3.06201C8.26965 3.56015 8.26965 4.05829 8.26965 4.39038C8.26965 4.8055 8.18662 5.05456 8.18662 5.30363C8.18662 5.55269 8.10361 5.71875 8.02059 5.80177C7.93757 5.96781 7.93756 6.05084 7.85453 6.05084C7.85453 6.05084 7.85453 6.13386 7.77151 6.13386C7.68848 6.13386 7.60546 6.21688 7.43942 6.21688C7.3564 6.21688 7.19036 6.13386 7.10733 6.05084C6.94129 5.96782 6.77524 5.80177 6.69222 5.63573C6.52617 5.46968 6.36012 5.2206 6.19408 4.88851C6.02803 4.55642 5.77895 4.22433 5.6129 3.7262L5.44687 3.39411C5.36385 3.22806 5.19781 2.89597 5.03176 2.48085C4.86571 2.06574 4.69966 1.73365 4.53362 1.31854C4.45059 1.15249 4.36758 1.06946 4.28456 0.986436H4.20153C4.20153 0.986436 4.1185 0.903421 4.03547 0.903421C3.95245 0.903421 3.86944 0.820393 3.78642 0.820393H0.797586C0.465494 0.820393 0.299451 0.903413 0.216428 0.986436L0.1334 1.06946C0.1334 1.06946 0.1334 1.15248 0.1334 1.23551C0.1334 1.31853 0.133405 1.40155 0.216428 1.56759C0.631543 2.56387 1.12968 3.56015 1.62781 4.55642C2.12595 5.46968 2.6241 6.29991 2.95619 6.88107C3.3713 7.46223 3.70339 8.04339 4.1185 8.54153C4.53362 9.03967 4.78268 9.37175 4.8657 9.5378C5.03175 9.70385 5.11477 9.78686 5.19779 9.86989L5.44687 10.119C5.61292 10.285 5.86198 10.5341 6.19408 10.7831C6.52617 11.0322 6.94128 11.2813 7.35639 11.5303C7.77151 11.7794 8.26965 11.9455 8.76779 12.1115C9.34895 12.2776 9.84708 12.3606 10.3452 12.2776H11.5906C11.8396 12.2776 12.0057 12.1945 12.1717 12.0285L12.2547 11.9455C12.2547 11.8624 12.3378 11.8624 12.3378 11.7794C12.3378 11.6964 12.3378 11.6134 12.3378 11.4473C12.3378 11.1152 12.3378 10.8662 12.4208 10.6171C12.5038 10.368 12.5038 10.202 12.5869 10.0359C12.6699 9.8699 12.7529 9.78687 12.8359 9.70384C12.9189 9.62082 13.002 9.5378 13.002 9.5378H13.085C13.251 9.45478 13.5001 9.5378 13.6661 9.70384C13.9152 9.86989 14.1643 10.119 14.3303 10.368C14.4964 10.6171 14.7454 10.8662 15.0775 11.1983C15.4096 11.5304 15.6587 11.7794 15.8247 11.8624L16.0738 12.0285C16.2398 12.1115 16.4059 12.1945 16.655 12.2776C16.904 12.3606 17.0701 12.3606 17.2361 12.3606L20.0589 12.2776C20.308 12.2776 20.557 12.1945 20.7231 12.1115C20.8891 12.0285 20.9721 11.9455 20.9721 11.7794C20.9721 11.6964 20.9721 11.5304 20.9721 11.4473C20.8061 11.2813 20.8061 11.1983 20.8061 11.1152Z" fill="black"/>
</svg>
