<svg width="181" height="93" viewBox="0 0 181 93" fill="none" xmlns="http://www.w3.org/2000/svg">
<path fill-rule="evenodd" clip-rule="evenodd" d="M155.304 0.337139C154.466 0.605007 154.282 0.825512 154.282 1.5598C154.282 2.05225 154.459 2.47161 154.675 2.49137C154.891 2.51145 155.28 2.54658 155.54 2.56979C155.799 2.593 156.054 2.91545 156.107 3.28651C156.19 3.86428 155.904 4.06032 154.106 4.65722C152.369 5.23404 151.962 5.27984 151.736 4.92383C151.323 4.27455 151.399 3.71121 151.925 3.50984C152.549 3.27083 152.531 1.85997 151.901 1.61877C151.186 1.34494 148.939 2.08895 148.939 2.59896C148.939 3.49698 149.344 4.02362 150.036 4.02362C150.509 4.02362 150.813 4.25761 150.933 4.71556C151.032 5.09634 151.057 5.46521 150.986 5.53516C150.846 5.67537 147.11 6.50438 146.539 6.52194C145.864 6.54264 145.834 5.32908 146.499 4.88839C146.979 4.57033 147.079 4.28678 146.904 3.73756C146.699 3.09173 146.528 3.02805 145.405 3.17861C143.747 3.40037 143.092 4.02675 143.576 4.92791C143.771 5.29333 144.194 5.59193 144.515 5.59193C144.999 5.59193 145.481 6.15245 145.481 6.71547C145.481 6.78762 145.053 6.84658 144.53 6.84658C143.829 6.84658 143.508 7.03478 143.306 7.56456C143.063 8.20161 140.686 10.6105 140.3 10.6105C140.217 10.6105 137.212 11.3756 133.621 12.3109C130.031 13.2459 124.618 14.6518 121.592 15.435C115.163 17.0987 117.548 16.4748 93.7743 22.7132C83.4016 25.4349 74.3747 27.7227 73.715 27.7968C72.7886 27.9012 72.347 27.7742 71.7771 27.24C70.6638 26.1961 70.5761 25.2545 71.3443 22.5887C72.3021 19.2648 72.2769 16.237 71.2755 14.2359C69.8953 11.4781 66.7419 10.1858 63.0357 10.8593C60.3906 11.3398 55.9894 13.6079 52.5777 16.2489C45.4218 21.7879 42.9471 22.9171 37.993 22.903C35.0015 22.8948 33.2878 22.5332 23.9938 19.9495C21.1426 19.1569 15.1157 18.8592 12.4517 19.3796C7.78808 20.2902 3.4158 23.3038 1.70775 26.7849C-0.673593 31.6379 -0.559806 38.9729 2.01987 46.9139C3.94575 52.8415 8.25234 59.8819 12.7265 64.4163C19.9877 71.7754 27.3364 74.8352 33.7505 73.1706C36.8325 72.3707 40.8477 69.8928 39.062 69.8928C37.9766 69.8928 34.0092 67.7009 32.2499 66.1292C30.8914 64.9159 30.1213 63.8626 29.1239 61.8536C27.9364 59.4623 27.7868 58.9039 27.6677 56.4226C27.5872 54.7442 27.6859 53.1796 27.9182 52.4431C28.9919 49.0408 31.8253 46.0858 35.4325 44.6066C37.3008 43.8403 37.9531 43.7459 41.9104 43.6697C48.3211 43.5464 49.3814 43.2701 50.6833 41.3827C51.1124 40.7608 51.8906 38.9315 52.4127 37.3177C53.703 33.3288 54.624 31.8417 56.3072 31.0287C58.0593 30.1825 59.8415 30.1934 63.853 31.0764C66.4704 31.6523 68.0058 31.78 72.243 31.7737C79.4156 31.763 81.3449 31.3408 96.6033 26.442C113.421 21.0426 125.252 17.4945 138.252 13.9507C153.811 9.70938 154.715 9.57137 157.244 11.05C158.047 11.5195 159.229 12.6039 159.872 13.4595L161.04 15.0156L163.869 14.8221C165.424 14.7158 166.803 14.5633 166.933 14.483C167.432 14.1759 167.136 12.2071 166.37 10.7357C165.931 9.89068 164.741 8.40957 163.727 7.44505C161.775 5.58848 161.126 4.19268 161.402 2.44558L161.554 1.48514L159.37 2.58265C158.169 3.18645 157.099 3.59265 156.991 3.486C156.63 3.1256 156.793 2.36999 157.315 1.98983C157.682 1.72165 157.772 1.37034 157.623 0.77909C157.396 -0.123318 156.986 -0.20142 155.304 0.337139ZM48.7801 47.635C44.1837 48.543 40.9084 52.2982 40.5676 57.0511C40.1961 62.2335 43.1061 66.4817 48.0005 67.9017C50.7194 68.6905 54.9886 68.386 57.2549 67.2417L59.0412 66.34V61.9998V57.66H55.2693H51.4974V59.0087C51.4974 60.6683 51.9073 61.1103 53.4462 61.1103H54.6407V62.6663V64.2227L53.3271 64.5756C50.8037 65.2537 47.5561 64.07 46.35 62.0327C44.4093 58.7543 45.4491 53.8261 48.4692 51.9886C49.9393 51.0941 52.7689 51.1803 54.9333 52.1856C55.8719 52.6219 56.8208 52.9095 57.0415 52.8249C57.2622 52.7405 57.816 52.0815 58.2721 51.3604C58.9363 50.3102 59.0174 49.994 58.6785 49.7713C56.829 48.5556 56.1042 48.214 54.4778 47.7912C52.4809 47.2721 50.8449 47.2272 48.7801 47.635ZM86.3047 47.56L84.4932 47.6544L84.5759 57.9109L84.6589 68.1677L86.9377 68.2599L89.2166 68.3521V58.0238C89.2166 46.2972 89.5215 47.3928 86.3047 47.56ZM62.4988 54.3844C62.4988 58.143 62.6478 61.7301 62.8342 62.4612C63.3167 64.3535 64.6498 66.1314 66.3924 67.2066C67.7245 68.0284 68.2595 68.157 70.8144 68.2684C73.2064 68.3728 73.9655 68.2869 75.1037 67.7822C77.1311 66.8832 78.5232 65.5765 79.3571 63.7892C80.0644 62.2736 80.0952 61.9063 80.098 54.9154L80.1011 47.6228H77.7437H75.3862V54.6337C75.3862 61.4139 75.3627 61.6799 74.6686 62.7106C74.2075 63.3959 73.478 63.9411 72.6255 64.2372C71.4597 64.6424 71.1391 64.6424 69.9641 64.2372C68.89 63.8667 68.4896 63.5022 67.921 62.3768C67.2537 61.0563 67.2137 60.6009 67.2137 54.3V47.6228H64.8563H62.4988V54.3844ZM92.3599 49.4928V51.3632L95.2674 51.4532L98.1749 51.5435L98.2585 59.934L98.3424 68.3245H100.695H103.047V59.8556V51.3867H105.876H108.705V49.5047V47.6228H100.532H92.3599V49.4928ZM115.306 47.7379C115.306 47.8012 113.538 52.4074 111.377 57.9736C109.216 63.5399 107.448 68.146 107.448 68.2094C107.448 68.2727 108.336 68.3245 109.421 68.3245C111.953 68.3245 112.535 67.8998 113.256 65.5232L113.834 63.6196H117.794H121.755L122.49 65.6634C122.894 66.7876 123.484 67.8462 123.802 68.0159C124.367 68.3179 128.193 68.4628 128.193 68.1824C128.193 68.056 126.405 63.3884 123.321 55.4643C122.75 53.9979 121.835 51.6336 121.286 50.2105L120.289 47.6228H117.797C116.427 47.6228 115.306 47.6745 115.306 47.7379ZM130.402 57.9736L130.379 68.3245H132.901H135.423V64.4037C135.423 60.7477 135.463 60.4829 136.026 60.4829C137.238 60.4829 137.649 60.9255 139.686 64.4254C142.006 68.4126 142.068 68.4531 145.565 68.2652L147.378 68.1677L145.16 64.5605C143.939 62.5766 142.62 60.6652 142.227 60.3132L141.512 59.6727L142.638 58.9629C144.61 57.7196 145.324 56.3222 145.324 53.7069C145.324 51.8908 145.192 51.2543 144.666 50.547C142.965 48.256 140.794 47.6228 134.637 47.6228H130.425L130.402 57.9736ZM138.635 51.4005C140.04 51.7901 140.766 52.7245 140.766 54.1432C140.766 56.2215 139.392 57.3463 136.853 57.3463H135.423V54.2097V51.073L136.444 51.0749C137.006 51.0759 137.992 51.2223 138.635 51.4005ZM119.313 56.3084C120.04 58.4978 120.585 60.3386 120.524 60.3989C120.464 60.4591 119.201 60.4676 117.718 60.4174L115.022 60.3261L116.342 56.3344C117.069 54.1388 117.737 52.3393 117.828 52.3352C117.919 52.3311 118.587 54.119 119.313 56.3084ZM69.5825 72.867C66.5502 73.6699 64.9393 76.7037 66.0884 79.4476C66.7385 81.0002 67.5234 81.652 69.6884 82.4374C70.6613 82.7903 72.0544 83.2981 72.7842 83.566C75.4774 84.554 76.5065 87.233 75.0857 89.5582C74.0944 91.1805 73.0263 91.6924 70.6324 91.6924C68.7558 91.6924 68.361 91.5788 67.0632 90.6661C66.2607 90.1018 65.4714 89.7219 65.3089 89.822C64.7111 90.1909 65.0443 90.8452 66.2286 91.6271C69.7211 93.9335 74.3486 93.2569 76.1585 90.1755C76.7617 89.1486 76.9579 88.3757 76.9579 87.0273C76.9579 84.1657 76.1422 83.3304 71.8303 81.7766C68.5999 80.6126 67.9002 80.1446 67.3203 78.7597C66.8988 77.7529 66.9032 77.501 67.3652 76.2937C68.3742 73.6574 71.9921 72.8911 74.7698 74.7254C75.8288 75.4249 76.0573 75.4798 76.2139 75.073C76.8287 73.4736 72.6022 72.0674 69.5825 72.867ZM88.6294 72.7402C85.269 73.3989 82.8581 75.4396 81.6457 78.6506C80.6892 81.1844 80.8888 85.6861 82.0569 87.9284C84.2119 92.0647 88.8771 93.9119 93.6624 92.5236C95.549 91.9762 97.5507 90.3825 97.0729 89.8082C96.8022 89.4829 96.4191 89.6115 95.1778 90.4449C91.9569 92.608 87.3398 92.166 84.7544 89.4472C83.1925 87.8045 82.4822 85.7168 82.4699 82.7307C82.4598 80.3475 82.5658 79.8331 83.4047 78.1961C83.9862 77.0619 84.8622 75.9606 85.677 75.3405C88.3651 73.2948 92.6179 73.2669 95.5465 75.2762C96.2949 75.7897 96.415 75.7972 96.7834 75.3543C97.269 74.7703 97.0861 74.6072 94.7173 73.5103C92.8732 72.6565 90.5531 72.3632 88.6294 72.7402ZM130.368 72.7158C127.173 73.2628 124.331 75.6689 123.301 78.7002C122.157 82.0632 122.724 86.8315 124.562 89.3183C128.272 94.3359 136.5 94.1305 140.032 88.9318C142.893 84.7197 141.94 77.347 138.163 74.472C136.196 72.9752 133.026 72.2607 130.368 72.7158ZM153.484 72.7365C150.645 73.1097 148.222 74.8534 146.797 77.5493C146.022 79.0138 145.953 79.4442 145.953 82.753C145.953 86.0565 146.023 86.4922 146.789 87.9284C148.58 91.2865 151.361 92.9266 155.225 92.9037C161.037 92.8696 164.655 88.9751 164.655 82.753C164.655 75.9352 160.115 71.8648 153.484 72.7365ZM102.104 82.753C102.104 92.581 102.117 92.7902 102.733 92.7902C103.334 92.7902 103.361 92.581 103.361 87.9284V83.0667H109.648H115.934V87.9284V92.7902H116.72H117.506V82.753V72.7158H116.72H115.934V77.4207V82.1257H109.648H103.361V77.4207C103.361 72.925 103.333 72.7158 102.733 72.7158C102.117 72.7158 102.104 72.925 102.104 82.753ZM169.999 82.753V92.7902H175.499C180.79 92.7902 181 92.7664 181 92.1629C181 91.5625 180.79 91.5355 176.128 91.5355H171.256V82.1257C171.256 72.925 171.242 72.7158 170.627 72.7158C170.012 72.7158 169.999 72.925 169.999 82.753ZM135.973 74.642C137.606 75.423 139.017 77.0726 139.657 78.9489C140.296 80.8199 140.276 84.746 139.617 86.675C137.469 92.9671 128.109 93.5615 125.182 87.5919C122.898 82.9337 124.409 76.7303 128.327 74.6781C130.526 73.5263 133.611 73.5115 135.973 74.642ZM158.85 74.5708C160.336 75.226 161.671 76.7012 162.564 78.6754C163.493 80.7308 163.46 84.8445 162.497 86.9874C160.738 90.9029 157.023 92.5932 152.832 91.3853C149.06 90.2981 146.72 86.3896 147.132 81.8631C147.417 78.7205 149.06 75.8433 151.207 74.7238C153.415 73.573 156.45 73.5122 158.85 74.5708Z" fill="#3F3F3F"/>
</svg>
